<?xml version="1.0" encoding="utf-8"?>
<!-- Generator: Adobe Illustrator 26.4.1, SVG Export Plug-In . SVG Version: 6.00 Build 0)  -->
<svg version="1.1" id="Capa_1" xmlns="http://www.w3.org/2000/svg" xmlns:xlink="http://www.w3.org/1999/xlink" x="0px" y="0px"
	 viewBox="0 0 213.65 354.52" style="enable-background:new 0 0 213.65 354.52;" xml:space="preserve">
<style type="text/css">
	.st0{fill:url(#SVGID_1_);}
	.st1{fill:url(#SVGID_00000016074933347917512250000014495258814220652700_);}
</style>
<g>
	
		<linearGradient id="SVGID_1_" gradientUnits="userSpaceOnUse" x1="349.6121" y1="298.4936" x2="-1.3512" y2="221.18" gradientTransform="matrix(-1 0 0 1 206.2609 3.7096)">
		<stop  offset="0" style="stop-color:#FFFDF6"/>
		<stop  offset="0.0629" style="stop-color:#FFFBF2"/>
		<stop  offset="0.1244" style="stop-color:#FEF3E6"/>
		<stop  offset="0.1853" style="stop-color:#FCE7D3"/>
		<stop  offset="0.2458" style="stop-color:#F9D5B7"/>
		<stop  offset="0.306" style="stop-color:#F6BF94"/>
		<stop  offset="0.3653" style="stop-color:#F3A369"/>
		<stop  offset="0.3738" style="stop-color:#F29F62"/>
		<stop  offset="0.4659" style="stop-color:#C77B7C"/>
		<stop  offset="0.6728" style="stop-color:#5C22BE"/>
		<stop  offset="0.6841" style="stop-color:#561DC2"/>
		<stop  offset="0.7016" style="stop-color:#4B19AA"/>
		<stop  offset="0.7434" style="stop-color:#351277"/>
		<stop  offset="0.7845" style="stop-color:#220B4C"/>
		<stop  offset="0.8241" style="stop-color:#13062B"/>
		<stop  offset="0.8618" style="stop-color:#090313"/>
		<stop  offset="0.8968" style="stop-color:#020105"/>
		<stop  offset="0.9265" style="stop-color:#000000"/>
	</linearGradient>
	<path class="st0" d="M59.66,341.07l140.9-140.9c12.97-12.97,12.97-34,0-46.97l0,0c-12.97-12.97-34-12.97-46.97,0L12.7,294.1
		c-12.97,12.97-12.97,34,0,46.97l0,0C25.67,354.04,46.7,354.04,59.66,341.07z"/>
	
		<linearGradient id="SVGID_00000118359262699859728060000000334793902542920602_" gradientUnits="userSpaceOnUse" x1="-38.9598" y1="200.6401" x2="250.9665" y2="77.04" gradientTransform="matrix(-1 0 0 1 206.2609 3.7096)">
		<stop  offset="0" style="stop-color:#F29F62"/>
		<stop  offset="0.0942" style="stop-color:#F19C66"/>
		<stop  offset="0.182" style="stop-color:#EC9571"/>
		<stop  offset="0.2673" style="stop-color:#E48784"/>
		<stop  offset="0.3511" style="stop-color:#DA759E"/>
		<stop  offset="0.433" style="stop-color:#CC5DC0"/>
		<stop  offset="0.4495" style="stop-color:#C958C8"/>
		<stop  offset="0.7094" style="stop-color:#561DC2"/>
		<stop  offset="1" style="stop-color:#000000"/>
	</linearGradient>
	<path style="fill:url(#SVGID_00000118359262699859728060000000334793902542920602_);" d="M200.57,200.3l-70.51,70.39
		c35.75-44.19,18.31-74.13,7.12-86.8L12.7,59.4c-12.97-12.97-12.97-34,0-46.96C19.18,5.95,27.68,2.7,36.18,2.7
		c8.5,0,17,3.24,23.49,9.73l140.9,140.89C213.53,166.3,213.53,187.32,200.57,200.3z"/>
</g>
</svg>
