<?xml version="1.0" encoding="utf-8"?>
<!-- Generator: Adobe Illustrator 26.4.1, SVG Export Plug-In . SVG Version: 6.00 Build 0)  -->
<svg version="1.1" id="Capa_2" xmlns="http://www.w3.org/2000/svg" xmlns:xlink="http://www.w3.org/1999/xlink" x="0px" y="0px"
	 viewBox="0 0 769.41 360.61" style="enable-background:new 0 0 769.41 360.61;" xml:space="preserve">
<style type="text/css">
	.st0{fill:url(#SVGID_1_);}
	.st1{fill:url(#SVGID_00000086686796082919193490000010785625156430992538_);}
	.st2{fill:#FFFFFF;}
</style>
<g>
	
		<linearGradient id="SVGID_1_" gradientUnits="userSpaceOnUse" x1="360.3927" y1="302.854" x2="9.4294" y2="225.5403" gradientTransform="matrix(-1 0 0 1 220.486 3.7096)">
		<stop  offset="0" style="stop-color:#FFFDF6"/>
		<stop  offset="0.0629" style="stop-color:#FFFBF2"/>
		<stop  offset="0.1244" style="stop-color:#FEF3E6"/>
		<stop  offset="0.1853" style="stop-color:#FCE7D3"/>
		<stop  offset="0.2458" style="stop-color:#F9D5B7"/>
		<stop  offset="0.306" style="stop-color:#F6BF94"/>
		<stop  offset="0.3653" style="stop-color:#F3A369"/>
		<stop  offset="0.3738" style="stop-color:#F29F62"/>
		<stop  offset="0.4659" style="stop-color:#C77B7C"/>
		<stop  offset="0.6728" style="stop-color:#5C22BE"/>
		<stop  offset="0.6841" style="stop-color:#561DC2"/>
		<stop  offset="0.7016" style="stop-color:#4B19AA"/>
		<stop  offset="0.7434" style="stop-color:#351277"/>
		<stop  offset="0.7845" style="stop-color:#220B4C"/>
		<stop  offset="0.8241" style="stop-color:#13062B"/>
		<stop  offset="0.8618" style="stop-color:#090313"/>
		<stop  offset="0.8968" style="stop-color:#020105"/>
		<stop  offset="0.9265" style="stop-color:#000000"/>
	</linearGradient>
	<path class="st0" d="M63.11,345.43l140.9-140.9c12.97-12.97,12.97-34,0-46.97l0,0c-12.97-12.97-34-12.97-46.97,0l-140.9,140.9
		c-12.97,12.97-12.97,34,0,46.97l0,0C29.11,358.4,50.14,358.4,63.11,345.43z"/>
	
		<linearGradient id="SVGID_00000066509791545509889260000011303803602211484081_" gradientUnits="userSpaceOnUse" x1="-28.1792" y1="205.0004" x2="261.7471" y2="81.4003" gradientTransform="matrix(-1 0 0 1 220.486 3.7096)">
		<stop  offset="0" style="stop-color:#F29F62"/>
		<stop  offset="0.0942" style="stop-color:#F19C66"/>
		<stop  offset="0.182" style="stop-color:#EC9571"/>
		<stop  offset="0.2673" style="stop-color:#E48784"/>
		<stop  offset="0.3511" style="stop-color:#DA759E"/>
		<stop  offset="0.433" style="stop-color:#CC5DC0"/>
		<stop  offset="0.4495" style="stop-color:#C958C8"/>
		<stop  offset="0.7094" style="stop-color:#561DC2"/>
		<stop  offset="1" style="stop-color:#000000"/>
	</linearGradient>
	<path style="fill:url(#SVGID_00000066509791545509889260000011303803602211484081_);" d="M204.01,204.66l-70.51,70.39
		c35.75-44.19,18.31-74.13,7.12-86.8L16.14,63.76c-12.97-12.97-12.97-34,0-46.96c6.49-6.49,14.99-9.73,23.48-9.73
		c8.5,0,17,3.24,23.49,9.73l140.9,140.89C216.98,170.66,216.98,191.68,204.01,204.66z"/>
</g>
<g>
	<path class="st2" d="M385.58,271.81V121.48h14.66v12.82c3.71-6.33,8.82-10.41,15.31-12.23c6.49-1.83,14.44-2.74,23.86-2.74
		c9.87,0,18.23,0.65,25.08,1.96c6.84,1.31,12.38,3.92,16.6,7.83c4.22,3.92,7.3,9.72,9.24,17.42c1.93,7.7,2.9,17.94,2.9,30.73
		c0,13.18-0.97,23.72-2.9,31.61c-1.94,7.89-5.01,13.82-9.24,17.76c-4.22,3.95-9.76,6.56-16.6,7.83c-6.85,1.27-15.21,1.91-25.08,1.91
		c-9.42,0-17.37-0.92-23.86-2.74c-6.49-1.83-11.59-5.94-15.31-12.33v50.5H385.58z M478.56,177.27c0-9.33-0.37-16.8-1.11-22.41
		c-0.74-5.61-2.35-9.84-4.85-12.67c-2.49-2.84-6.37-4.75-11.64-5.73s-12.46-1.47-21.57-1.47c-8.3,0-15.01,0.49-20.15,1.47
		c-5.14,0.98-9.08,2.89-11.83,5.73c-2.75,2.84-4.63,7.06-5.65,12.67c-1.02,5.61-1.53,13.08-1.53,22.41c0,9.66,0.51,17.39,1.53,23.2
		c1.02,5.81,2.9,10.16,5.65,13.07c2.75,2.9,6.69,4.83,11.83,5.77c5.14,0.95,11.86,1.42,20.15,1.42c9.11,0,16.3-0.47,21.57-1.42
		c5.27-0.95,9.15-2.87,11.64-5.77c2.49-2.9,4.11-7.26,4.85-13.07C478.19,194.66,478.56,186.93,478.56,177.27z"/>
	<path class="st2" d="M624.99,200.76c0,8.42-0.98,15.04-2.94,19.87c-1.96,4.83-4.95,8.35-8.97,10.57
		c-4.02,2.22-9.15,3.64-15.38,4.26c-6.23,0.62-13.65,0.93-22.25,0.93c-9.82,0-18.16-0.64-25-1.91c-6.84-1.27-12.37-3.88-16.57-7.83
		c-4.2-3.95-7.25-9.87-9.16-17.76s-2.86-18.43-2.86-31.61c0-12.79,0.93-23.03,2.79-30.73c1.86-7.7,4.87-13.51,9.05-17.42
		c4.17-3.91,9.66-6.52,16.45-7.83c6.79-1.3,15.1-1.96,24.92-1.96c11.25,0,20.56,1.01,27.94,3.03c7.38,2.02,12.89,5.87,16.53,11.55
		c3.64,5.68,5.46,14,5.46,24.96v24.17h-88.4c0.05,8.35,0.51,15.04,1.37,20.06c0.87,5.02,2.6,8.81,5.19,11.35s6.48,4.22,11.64,5.04
		c5.17,0.82,12.05,1.22,20.65,1.22c7.74,0,13.98-0.2,18.74-0.59c4.76-0.39,8.37-1.26,10.84-2.59c2.47-1.34,4.13-3.34,5-6.02
		c0.87-2.67,1.3-6.26,1.3-10.77H624.99z M575.06,134.99c-8.3,0-14.98,0.39-20.04,1.17c-5.06,0.78-8.92,2.3-11.56,4.55
		c-2.65,2.25-4.44,5.6-5.38,10.03c-0.94,4.44-1.44,10.28-1.49,17.52h74.35v-9.4c0-4.7-0.42-8.6-1.26-11.7
		c-0.84-3.1-2.48-5.54-4.92-7.34c-2.44-1.79-6.04-3.05-10.8-3.77C589.19,135.35,582.9,134.99,575.06,134.99z"/>
	<path class="st2" d="M710.44,236.38c-9.82,0-18.17-0.64-25.04-1.91c-6.87-1.27-12.42-3.88-16.64-7.83
		c-4.22-3.95-7.3-9.87-9.24-17.76c-1.93-7.89-2.9-18.43-2.9-31.61c0-12.79,0.97-23.03,2.9-30.73c1.93-7.7,5.01-13.51,9.24-17.42
		c4.22-3.91,9.77-6.52,16.64-7.83c6.87-1.3,15.22-1.96,25.04-1.96c11.76,0,21.44,0.87,29.05,2.59c7.61,1.73,13.24,5.27,16.91,10.62
		c3.67,5.35,5.5,13.51,5.5,24.47h-14.05c0-6.33-1.02-11.06-3.05-14.19c-2.04-3.13-5.75-5.22-11.15-6.26
		c-5.39-1.04-13.13-1.57-23.21-1.57c-9.06,0-16.24,0.49-21.53,1.47c-5.29,0.98-9.19,2.89-11.68,5.73
		c-2.49,2.84-4.11,7.06-4.85,12.67c-0.74,5.61-1.11,13.08-1.11,22.41c0,9.66,0.37,17.39,1.11,23.2c0.74,5.81,2.35,10.16,4.85,13.07
		c2.49,2.9,6.39,4.83,11.68,5.77c5.29,0.95,12.47,1.42,21.53,1.42c7.68,0,13.97-0.28,18.86-0.83c4.89-0.55,8.68-1.66,11.37-3.33
		c2.7-1.66,4.57-4.08,5.61-7.24c1.04-3.16,1.56-7.39,1.56-12.67h14.05c0,8.74-1.02,15.76-3.05,21.04
		c-2.04,5.29-5.14,9.27-9.31,11.94c-4.17,2.68-9.5,4.47-15.99,5.38C727.05,235.93,719.35,236.38,710.44,236.38z"/>
	<g>
		<path class="st2" d="M353.94,121.48h-14.66v12.82c-3.71-6.33-8.82-10.41-15.31-12.23c-6.49-1.83-14.44-2.74-23.86-2.74
			c-9.87,0-18.23,0.65-25.08,1.96c-6.84,1.31-12.38,3.92-16.6,7.83c-4.22,3.92-7.3,9.72-9.24,17.42c-1.93,7.7-2.9,17.94-2.9,30.73
			c0,13.18,0.97,23.72,2.9,31.61c1.94,7.89,5.01,13.82,9.24,17.76c4.22,3.95,9.76,6.56,16.6,7.83c6.85,1.27,15.21,1.91,25.08,1.91
			c9.42,0,17.37-0.92,23.86-2.74c6.49-1.83,11.59-5.94,15.31-12.33v15.65h14.66V121.48z M337.75,200.46
			c-1.02,5.81-2.9,10.16-5.65,13.07c-2.75,2.9-6.69,4.83-11.83,5.77c-5.14,0.95-11.86,1.42-20.15,1.42c-9.11,0-16.3-0.47-21.57-1.42
			c-5.27-0.95-9.15-2.87-11.64-5.77c-2.49-2.9-4.11-7.26-4.85-13.07c-0.74-5.81-1.11-13.54-1.11-23.2c0-9.33,0.37-16.8,1.11-22.41
			c0.74-5.61,2.35-9.84,4.85-12.67c2.49-2.84,6.37-4.75,11.64-5.73s12.46-1.47,21.57-1.47c8.3,0,15.01,0.49,20.15,1.47
			c5.14,0.98,9.08,2.89,11.83,5.73c2.75,2.84,4.63,7.06,5.65,12.67c1.02,5.61,1.53,13.08,1.53,22.41
			C339.28,186.93,338.77,194.66,337.75,200.46z"/>
	</g>
</g>
</svg>
