<?xml version="1.0" encoding="utf-8"?>
<!-- Generator: Adobe Illustrator 26.4.1, SVG Export Plug-In . SVG Version: 6.00 Build 0)  -->
<svg version="1.1" id="Capa_1" xmlns="http://www.w3.org/2000/svg" xmlns:xlink="http://www.w3.org/1999/xlink" x="0px" y="0px"
	 viewBox="0 0 291.18 391.92" style="enable-background:new 0 0 291.18 391.92;" xml:space="preserve">
<style type="text/css">
	.st0{fill:url(#SVGID_1_);stroke:#561DC2;stroke-width:5;stroke-miterlimit:10;}
	.st1{fill:url(#SVGID_00000004546334349453102590000017603317958147350163_);}
	.st2{fill:url(#SVGID_00000084520749499574858520000018376307627577728137_);}
</style>
<g>
	<g>
		<linearGradient id="SVGID_1_" gradientUnits="userSpaceOnUse" x1="126.3451" y1="309.1468" x2="126.3451" y2="309.1468">
			<stop  offset="0" style="stop-color:#F29F62"/>
			<stop  offset="0.4944" style="stop-color:#C958C8"/>
			<stop  offset="1" style="stop-color:#561DC2"/>
		</linearGradient>
		<path class="st0" d="M126.35,309.15"/>
	</g>
	<g>
		<g>
			
				<linearGradient id="SVGID_00000076568843602416210470000014268093530859891334_" gradientUnits="userSpaceOnUse" x1="-0.1134" y1="215.686" x2="252.8021" y2="215.686">
				<stop  offset="0" style="stop-color:#F29F62"/>
				<stop  offset="0.4944" style="stop-color:#C958C8"/>
				<stop  offset="1" style="stop-color:#561DC2"/>
			</linearGradient>
			<path style="fill:url(#SVGID_00000076568843602416210470000014268093530859891334_);" d="M252.75,162.25h-42.26
				c-1.68-11.33-11.47-20.06-23.26-20.06c-11.8,0-21.59,8.73-23.26,20.06h-34.79v-37.49c-1.12,0.24-2.27,0.36-3.46,0.36
				c-1.19,0-2.34-0.12-3.46-0.36c-7.5-1.61-13.13-8.27-13.13-16.24c0-7.95,5.64-14.63,13.13-16.24c1.12-0.24,2.27-0.36,3.46-0.36
				c1.19,0,2.34,0.12,3.46,0.36V39.49c-0.94-0.03-1.9-0.04-2.84-0.04h-0.64c-1.15,0-2.3,0.03-3.45,0.07
				C54.46,41.68-0.11,97.67-0.11,165.91c0,34.85,14.6,68.5,40.06,92.32c11.54,10.79,18.15,26.16,18.15,42.15v3.69
				c-2.2,0.11-4.24,1.03-5.75,2.55c-1.69,1.68-2.63,3.91-2.63,6.32c0,14.6,10.53,26.81,24.4,29.39
				c1.03,15.32,9.89,26.92,21.03,26.92h5.32c1.69,12.79,12.66,22.68,25.88,22.68c13.23,0,24.19-9.89,25.88-22.68h5.32
				c5.9,0,11.36-3.3,15.35-9.27c3.24-4.84,5.21-11.02,5.67-17.65c5.89-1.08,11.32-3.92,15.66-8.26c5.61-5.63,8.71-13.08,8.76-20.99
				v-0.01c0-4.97-3.99-9.02-8.9-9.02h-0.15v-3.02c0-15.98,6.89-31.59,18.9-42.85c24.61-23.08,39.04-55.34,39.93-88.98
				c0.03-1.08,0.04-2.18,0.04-3.27v-0.19C252.8,164.55,252.79,163.4,252.75,162.25z M122.24,46.45v38.81
				c-11.33,1.68-20.06,11.47-20.06,23.26c0,11.8,8.73,21.59,20.06,23.26v30.47H88.82c-1.68-11.33-11.46-20.06-23.26-20.06
				c-11.79,0-21.59,8.73-23.26,20.06H6.88C8.78,99.5,59.49,48.57,122.24,46.45z M44.68,253.17C21.4,231.4,7.74,200.94,6.87,169.18
				h42.45c-0.24-1.12-0.36-2.27-0.36-3.46c0-1.19,0.12-2.34,0.36-3.46c1.59-7.5,8.29-13.13,16.24-13.13
				c7.97,0,14.65,5.64,16.24,13.13c0.24,1.12,0.36,2.27,0.36,3.46c0,1.19-0.12,2.34-0.36,3.46h40.44v30.47
				c-11.33,1.68-20.06,11.46-20.06,23.26c0,11.79,8.73,21.59,20.06,23.26v57.86H65.02v-3.66C65.02,282.48,57.61,265.27,44.68,253.17
				z M126.34,384.99c-9.39,0-17.25-6.8-18.87-15.75h37.76C143.59,378.19,135.75,384.99,126.34,384.99z M167.13,356.12
				c-2.66,3.99-6.07,6.19-9.59,6.19h-62.4c-6.97,0-12.95-8.62-14.04-19.48h90.46C171.08,347.87,169.56,352.5,167.13,356.12z
				 M194.08,310.96c1.09,0,1.95,0.91,1.97,2.08c-0.04,6.08-2.42,11.8-6.73,16.13c-4.34,4.34-10.1,6.73-16.24,6.73H79.61
				c-12.66,0-22.97-10.31-22.97-22.97c0-0.53,0.21-1.01,0.61-1.41c0.35-0.36,0.83-0.55,1.36-0.55H194.08z M208.09,253.1
				C194.68,265.67,187,283.13,187,301.01v3.02h-57.83v-64.88c-1.12,0.24-2.27,0.36-3.46,0.36c-1.19,0-2.34-0.12-3.46-0.36
				c-7.5-1.61-13.13-8.29-13.13-16.24c0-7.97,5.64-14.63,13.13-16.24c1.12-0.24,2.27-0.36,3.46-0.36c1.19,0,2.34,0.12,3.46,0.36
				v-37.49h41.82c-0.24-1.12-0.36-2.27-0.36-3.46c0-1.19,0.12-2.34,0.36-3.46c1.59-7.5,8.27-13.13,16.24-13.13
				c7.95,0,14.65,5.64,16.24,13.13c0.24,1.12,0.36,2.27,0.36,3.46c0,1.19-0.12,2.34-0.36,3.46h42.36
				C244.93,200.91,231.3,231.34,208.09,253.1z"/>
		</g>
	</g>
	<g>
		<g>
			
				<linearGradient id="SVGID_00000088114712925992875090000008721479929369320353_" gradientUnits="userSpaceOnUse" x1="140.6109" y1="64.8437" x2="291.1783" y2="64.8437">
				<stop  offset="0" style="stop-color:#F29F62"/>
				<stop  offset="0.4944" style="stop-color:#C958C8"/>
				<stop  offset="1" style="stop-color:#561DC2"/>
			</linearGradient>
			<path style="fill:url(#SVGID_00000088114712925992875090000008721479929369320353_);" d="M291.18,126.22V3.37
				c0-1.86-1.51-3.37-3.37-3.37H164.14l-0.03,0c-1.89-0.04-3.44,1.48-3.44,3.37v45.92c0,1.65-1.17,3.11-2.8,3.34
				c-0.47,0.07-0.93,0.15-1.39,0.24c-9.2,1.97-15.86,10.23-15.86,19.62c0,9.41,6.66,17.67,15.88,19.63c0.46,0.1,0.93,0.18,1.39,0.24
				c1.62,0.22,2.79,1.68,2.79,3.32v30.63c0,1.86,1.51,3.37,3.37,3.37h34.96c1.67,0,3.08-1.22,3.33-2.87l0.01-0.08
				c1.44-9.75,9.98-17.11,19.84-17.11c9.87,0,18.39,7.36,19.83,17.11l0.01,0.08c0.25,1.65,1.66,2.87,3.33,2.87h42.45
				C289.71,129.69,291.23,128.12,291.18,126.22L291.18,126.22z M222.19,102.7c-11.46,0-21.58,7.37-25.39,17.83
				c-0.49,1.34-1.74,2.23-3.16,2.23h-22.67c-1.86,0-3.37-1.51-3.37-3.37V88.62c0-2.14-1.97-3.74-4.07-3.3l-0.12,0.02
				c-1.83,0.39-3.67,0.37-5.49,0c-6.03-1.29-10.39-6.69-10.39-12.86c0-6.15,4.36-11.56,10.38-12.84c1.84-0.39,3.67-0.39,5.5,0
				l0.13,0.03c2.09,0.44,4.06-1.16,4.06-3.3v-45.7c0-1.97,1.69-3.53,3.66-3.36c0.44,0.04,0.88,0.08,1.33,0.12
				c0.1,0.01,0.19,0.01,0.29,0.01h106.87c1.86,0,3.37,1.51,3.37,3.37v101.83c0,0.14,0.01,0.28,0.03,0.42
				c0.27,1.98,0.5,3.98,0.68,5.99c0.18,1.99-1.36,3.7-3.36,3.7h-29.74c-1.42,0-2.68-0.9-3.16-2.23
				C243.76,110.07,233.64,102.7,222.19,102.7z"/>
		</g>
	</g>
</g>
</svg>
