<?xml version="1.0" encoding="utf-8"?>
<!-- Generator: Adobe Illustrator 26.4.1, SVG Export Plug-In . SVG Version: 6.00 Build 0)  -->
<svg version="1.1" id="Capa_1" xmlns="http://www.w3.org/2000/svg" xmlns:xlink="http://www.w3.org/1999/xlink" x="0px" y="0px"
	 viewBox="0 0 409.01 491" style="enable-background:new 0 0 409.01 491;" xml:space="preserve">
<style type="text/css">
	.st0{fill:url(#SVGID_1_);}
	.st1{fill:url(#SVGID_00000109020998653759188720000009929529226966160790_);}
	.st2{fill:url(#SVGID_00000109003318998987994740000010535959155729941925_);}
	.st3{fill:url(#SVGID_00000096757289352763281000000009730721417465190805_);}
	.st4{fill:url(#SVGID_00000121989685806579139590000014498386251270027190_);}
</style>
<g>
	<g>
		<linearGradient id="SVGID_1_" gradientUnits="userSpaceOnUse" x1="0.2072" y1="245.5" x2="409.008" y2="245.5">
			<stop  offset="0" style="stop-color:#F29F62"/>
			<stop  offset="0.4944" style="stop-color:#C958C8"/>
			<stop  offset="1" style="stop-color:#561DC2"/>
		</linearGradient>
		<path class="st0" d="M389.16,265.17l-57.54-57.54c-0.44-0.44-0.96-0.8-1.53-1.07c-0.74-0.34-18.41-8.42-29.4,2.56
			c-3.97,3.97-6.33,8.63-7.36,13.3l-2.15-2.15V32.9c0-18.14-14.76-32.9-32.9-32.9H33.11C14.97,0,0.21,14.76,0.21,32.9v140.95
			c0,2.38,1.92,4.3,4.3,4.3c2.38,0,4.3-1.92,4.3-4.3v-99.7h273.79v137.96c-7.83-5.54-18.79-4.8-25.8,2.22l-3.72,3.71
			c-3.38,3.39-5.43,7.62-6.13,12.03c-9.12-4.09-20.23-2.41-27.69,5.07c-3.59,3.58-5.83,8.02-6.72,12.66l-39.92-39.92
			c-8.66-8.66-22.75-8.66-31.41,0c-10.17,10.17-10.17,26.72,0,36.88l95.96,95.96l-37.44-1.45c-10.29-0.39-19.36,6.96-21.11,17.1
			c-2.26,13.19,6.62,25.76,19.93,28.06l84.05,12.3v22.94H8.8V220.76c0-2.38-1.92-4.3-4.3-4.3c-2.38,0-4.3,1.92-4.3,4.3V458.1
			c0,18.14,14.76,32.9,32.9,32.9h225.17c18.14,0,32.9-14.76,32.9-32.9v-60.11l29.41,4.31c0.2,0.03,0.42,0.04,0.62,0.04
			c1.49,0.04,36.91,0.7,67.95-30.34C420.15,341.02,410.68,286.68,389.16,265.17z M282.59,458.1c0,13.4-10.91,24.31-24.31,24.31
			H33.11c-13.4,0-24.31-10.91-24.31-24.31v-29.84h273.79V458.1z M8.8,65.56V32.9c0-13.4,10.91-24.31,24.31-24.31h225.17
			c13.4,0,24.31,10.91,24.31,24.31v32.66H8.8z M381.56,364.4c-26.32,26.32-56.69,27.18-59.78,27.19l-30.6-4.48l-8.59-1.25
			l-82.34-12.06c-7.35-1.27-12.28-8.28-11.02-15.62c0.83-4.84,5.17-8.35,10.08-8.16l51.16,1.96c2.21,0.09,4.25-1.19,5.14-3.22
			c0.89-2.02,0.44-4.38-1.13-5.96L148.8,237.14c-5.97-5.97-5.97-15.69,0-21.66c4.47-4.47,11.74-4.47,16.21,0l80.87,80.87
			c2.09,2.1,5.5,2.1,7.6,0c2.1-2.1,2.1-5.51,0-7.6l-26.63-26.63c-5.34-5.34-5.34-14.03,0-19.37c5.44-5.46,14.33-5.47,19.79-0.03
			l25.79,25.62c1.05,1.05,2.42,1.56,3.79,1.56c1.37,0,2.75-0.52,3.81-1.57c2.09-2.1,2.09-5.5,0-7.6l-19.36-19.34
			c-4.32-4.34-4.32-11.38,0-15.71l3.72-3.72c3.65-3.65,9.58-3.65,13.23,0l4.97,4.97l8.59,8.59l7.03,7.03c2.1,2.09,5.51,2.09,7.6,0
			c2.1-2.1,2.1-5.51,0-7.62c-3.12-3.12-3.72-11.97,2.49-18.18c4.71-4.71,13.77-1.76,16.47-0.73l56.79,56.79
			C397.29,288.51,409.52,336.42,381.56,364.4z"/>
	</g>
	<g>
		<g>
			
				<linearGradient id="SVGID_00000111185045679910101650000012289090880257641129_" gradientUnits="userSpaceOnUse" x1="4.9871" y1="173.856" x2="287.014" y2="173.856">
				<stop  offset="0" style="stop-color:#F29F62"/>
				<stop  offset="0.4944" style="stop-color:#C958C8"/>
				<stop  offset="1" style="stop-color:#561DC2"/>
			</linearGradient>
			<path style="fill:url(#SVGID_00000111185045679910101650000012289090880257641129_);" d="M202.31,189.22
				c-1.18,0-2.35-0.48-3.2-1.43c-11.8-13.17-28.69-20.72-46.34-20.72c-16.93,0-32.76,6.69-44.58,18.84
				c-1.65,1.7-4.37,1.74-6.07,0.08c-1.7-1.65-1.74-4.37-0.08-6.07c13.45-13.83,31.47-21.44,50.74-21.44
				c20.09,0,39.31,8.59,52.74,23.58c1.58,1.77,1.43,4.48-0.33,6.07C204.36,188.86,203.33,189.22,202.31,189.22z"/>
		</g>
		<g>
			
				<linearGradient id="SVGID_00000052824902003258676890000004904711992071824552_" gradientUnits="userSpaceOnUse" x1="51.1595" y1="193.684" x2="245.5897" y2="193.684">
				<stop  offset="0" style="stop-color:#F29F62"/>
				<stop  offset="0.4944" style="stop-color:#C958C8"/>
				<stop  offset="1" style="stop-color:#561DC2"/>
			</linearGradient>
			<path style="fill:url(#SVGID_00000052824902003258676890000004904711992071824552_);" d="M185.86,205.67
				c-1.22,0-2.44-0.52-3.28-1.52c-7.44-8.81-18.3-13.86-29.81-13.86c-10.72,0-20.72,4.27-28.15,12.02
				c-1.64,1.71-4.36,1.77-6.07,0.13c-1.71-1.64-1.77-4.36-0.13-6.07c9.07-9.46,21.27-14.67,34.35-14.67
				c14.04,0,27.3,6.16,36.37,16.91c1.53,1.81,1.3,4.52-0.51,6.05C187.82,205.34,186.84,205.67,185.86,205.67z"/>
		</g>
		<g>
			
				<linearGradient id="SVGID_00000113331833881269528100000012311698119139806348_" gradientUnits="userSpaceOnUse" x1="6.8452" y1="193.684" x2="285.401" y2="193.684">
				<stop  offset="0" style="stop-color:#F29F62"/>
				<stop  offset="0.4944" style="stop-color:#C958C8"/>
				<stop  offset="1" style="stop-color:#561DC2"/>
			</linearGradient>
			<path style="fill:url(#SVGID_00000113331833881269528100000012311698119139806348_);" d="M185.86,205.67
				c-1.22,0-2.44-0.52-3.28-1.52c-7.44-8.81-18.3-13.86-29.81-13.86c-10.72,0-20.72,4.27-28.15,12.02
				c-1.64,1.71-4.36,1.77-6.07,0.13c-1.71-1.64-1.77-4.36-0.13-6.07c9.07-9.46,21.27-14.67,34.35-14.67
				c14.04,0,27.3,6.16,36.37,16.91c1.53,1.81,1.3,4.52-0.51,6.05C187.82,205.34,186.84,205.67,185.86,205.67z"/>
		</g>
	</g>
	<g>
		
			<linearGradient id="SVGID_00000000193602607605609610000007478214185860603288_" gradientUnits="userSpaceOnUse" x1="125.1666" y1="472.0514" x2="153.1147" y2="444.1032">
			<stop  offset="0" style="stop-color:#F29F62"/>
			<stop  offset="0.4944" style="stop-color:#C958C8"/>
			<stop  offset="1" style="stop-color:#561DC2"/>
		</linearGradient>
		<path style="fill:url(#SVGID_00000000193602607605609610000007478214185860603288_);" d="M139.14,477.85
			c-10.9,0-19.77-8.87-19.77-19.77s8.87-19.77,19.77-19.77s19.77,8.87,19.77,19.77S150.04,477.85,139.14,477.85z M139.14,442.6
			c-8.53,0-15.48,6.94-15.48,15.48s6.94,15.48,15.48,15.48c8.53,0,15.48-6.94,15.48-15.48S147.67,442.6,139.14,442.6z"/>
	</g>
</g>
</svg>
