<?xml version="1.0" encoding="utf-8"?>
<!-- Generator: Adobe Illustrator 26.4.1, SVG Export Plug-In . SVG Version: 6.00 Build 0)  -->
<svg version="1.1" xmlns="http://www.w3.org/2000/svg" xmlns:xlink="http://www.w3.org/1999/xlink" x="0px" y="0px"
	 viewBox="0 0 530.88 494.62" style="enable-background:new 0 0 530.88 494.62;" xml:space="preserve">
<style type="text/css">
	.st0{fill:url(#SVGID_1_);}
	.st1{fill:url(#SVGID_00000032612703883111356410000003177675490404360115_);}
</style>
<g id="Capa_2">
</g>
<g id="Capa_1">
	<g>
		<g>
			<linearGradient id="SVGID_1_" gradientUnits="userSpaceOnUse" x1="265.4428" y1="394.1785" x2="265.4428" y2="394.1785">
				<stop  offset="0" style="stop-color:#F29F62"/>
				<stop  offset="0.4944" style="stop-color:#C958C8"/>
				<stop  offset="1" style="stop-color:#561DC2"/>
			</linearGradient>
			<path class="st0" d="M265.44,394.18"/>
		</g>
		<g>
			
				<linearGradient id="SVGID_00000039843260599220461820000006951661336612631190_" gradientUnits="userSpaceOnUse" x1="0" y1="247.3114" x2="530.8794" y2="247.3114">
				<stop  offset="0" style="stop-color:#F29F62"/>
				<stop  offset="0.4944" style="stop-color:#C958C8"/>
				<stop  offset="1" style="stop-color:#561DC2"/>
			</linearGradient>
			<path style="fill:url(#SVGID_00000039843260599220461820000006951661336612631190_);" d="M499.19,129.55
				c-20.82-21.09-48.62-32.71-78.26-32.71h-0.4c-0.02,0-0.02,0-0.02,0c-5.44,0-10.02-3.82-11.14-9.29C398.87,36.81,353.59,0,301.7,0
				c-35.06,0-67.19,16.14-88.18,44.28c-8.24,11.05-22.83,15.12-35.45,9.87c-8.92-3.72-18.37-5.6-28.13-5.6
				c-41.08,0-73.26,31.13-73.26,70.86c0,0.1-0.07,0.2-0.13,0.22C31.48,130.42,0,170.37,0,216.78c0,55.1,44.83,99.94,99.92,99.94
				h45.55c4.7,5.95,9.85,11.57,15.44,16.79c13.71,12.84,21.56,31.1,21.56,50.12v3.67c-2.55,0.3-4.9,1.43-6.65,3.23
				c-2.22,2.17-3.42,5.07-3.42,8.19c0,17.77,12.64,32.65,29.41,36.06c1.45,18.56,12.39,32.55,26.08,32.55h5.67
				c2.4,15.44,15.79,27.29,31.88,27.29c16.09,0,29.48-11.85,31.9-27.29H303c7.29,0,14.27-4.2,19.16-11.54
				c3.87-5.77,6.25-13.11,6.89-20.99c7.02-1.42,13.47-4.85,18.67-10.05c6.9-6.92,10.72-16.11,10.77-25.84v-0.02
				c0-6.24-4.82-11.32-10.89-11.65v-2.83c0-18.99,8.2-37.58,22.48-50.97c5.55-5.2,10.67-10.79,15.34-16.71h33.96
				c30.34,0,58.02-12.17,78.21-31.81c20.19-19.64,32.88-46.77,33.28-76.66C531.25,178.59,520,150.64,499.19,129.55z M265.43,484.62
				c-10.55,0-19.41-7.4-21.69-17.29h43.4C284.86,477.22,276.01,484.62,265.43,484.62z M313.84,450.24
				c-1.77,2.65-5.52,7.09-10.84,7.09h-75.11c-7.77,0-14.47-9.55-15.94-21.79h106.99C318.27,441.12,316.52,446.22,313.84,450.24z
				 M348.48,398.87c-0.03,7.09-2.83,13.77-7.85,18.81c-5.07,5.07-11.79,7.85-18.96,7.85H209.21c-14.79,0-26.81-12.02-26.81-26.81
				c0-0.52,0.22-0.85,0.48-1.1c0.18-0.2,0.52-0.42,1.05-0.42h163.01C347.82,397.2,348.48,397.94,348.48,398.87z M235.72,291.04
				h-11.6c-6.4,0-11.62-5.2-11.62-11.6v-5.12c0-6.4,5.22-11.6,11.62-11.6c6.4,0,11.6,5.2,11.6,11.6V291.04z M245.73,387.2v-86.15
				h38.15v86.15H245.73z M363.24,326.12c-16.29,15.29-25.64,36.51-25.64,58.27v2.8h-43.72v-86.15h12.89
				c11.92,0,21.61-9.69,21.61-21.61v-5.12c0-11.92-9.69-21.61-21.61-21.61h-1.28c-11.92,0-21.61,9.69-21.61,21.61v16.72h-38.15
				v-16.72c0-11.92-9.69-21.61-21.61-21.61c-11.92,0-21.62,9.69-21.62,21.61v5.12c0,11.92,9.7,21.61,21.62,21.61h11.6v86.15h-43.25
				v-3.57c0-21.77-9-42.7-24.73-57.42c-3.23-3.03-6.32-6.19-9.2-9.49c-2.88-3.22-5.57-6.55-8.12-10
				c-17.99-24.41-27.98-54.25-27.98-84.9c0-78.46,63.81-142.62,142.25-143.02h0.73c37.78,0,73.49,14.81,100.61,41.75
				c13.64,13.56,24.24,29.29,31.41,46.42c7.19,17.12,10.97,35.6,10.99,54.62c0.05,30.73-9.94,60.66-27.96,85.13
				c-2.53,3.45-5.24,6.79-8.12,10C369.49,319.99,366.44,323.12,363.24,326.12z M293.88,291.04v-16.72c0-6.4,5.2-11.6,11.6-11.6h1.28
				c6.4,0,11.6,5.2,11.6,11.6v5.12c0,6.4-5.2,11.6-11.6,11.6H293.88z M419.38,306.72h-26.69c16.62-24.96,25.76-54.55,25.76-84.92
				v-0.23c-0.07-40.73-16.16-79.13-45.35-108.12c-28.99-28.81-67.21-44.65-107.66-44.65h-0.78
				c-83.93,0.43-152.21,69.06-152.21,153.03c0,30.34,9.15,59.94,25.76,84.9H99.92c-49.57,0-89.92-40.35-89.92-89.93
				c0-41.77,28.33-77.71,68.86-87.43c4.6-1.1,7.82-5.19,7.82-9.94c0-34.13,27.79-60.86,63.26-60.86c8.42,0,16.59,1.62,24.29,4.84
				c16.86,7,36.31,1.62,47.3-13.14C240.61,24.68,269.84,10,301.7,10c47.17,0,88.32,33.46,97.87,79.58
				c2.07,10,10.87,17.26,20.94,17.26c0,0,0,0,0.02,0h0.4c26.94,0,52.2,10.55,71.13,29.73c18.92,19.17,29.16,44.58,28.81,71.54
				C520.17,262.48,474.63,306.72,419.38,306.72z"/>
		</g>
	</g>
</g>
</svg>
